<svg width="195" height="31" viewBox="0 0 195 31" fill="none" xmlns="http://www.w3.org/2000/svg">
<path d="M11 1.92C13.96 1.92 16.5467 2.50667 18.76 3.68C20.9733 4.85333 22.68 6.50667 23.88 8.64C25.1067 10.7467 25.72 13.1867 25.72 15.96C25.72 18.7067 25.1067 21.1467 23.88 23.28C22.68 25.4133 20.96 27.0667 18.72 28.24C16.5067 29.4133 13.9333 30 11 30H0.48V1.92H11ZM10.56 24.08C13.1467 24.08 15.16 23.3733 16.6 21.96C18.04 20.5467 18.76 18.5467 18.76 15.96C18.76 13.3733 18.04 11.36 16.6 9.92C15.16 8.48 13.1467 7.76 10.56 7.76H7.32V24.08H10.56ZM39.7025 30.32C37.5158 30.32 35.5425 29.8533 33.7825 28.92C32.0492 27.9867 30.6758 26.6533 29.6625 24.92C28.6758 23.1867 28.1825 21.16 28.1825 18.84C28.1825 16.5467 28.6892 14.5333 29.7025 12.8C30.7158 11.04 32.1025 9.69333 33.8625 8.76C35.6225 7.82667 37.5958 7.36 39.7825 7.36C41.9692 7.36 43.9425 7.82667 45.7025 8.76C47.4625 9.69333 48.8492 11.04 49.8625 12.8C50.8758 14.5333 51.3825 16.5467 51.3825 18.84C51.3825 21.1333 50.8625 23.16 49.8225 24.92C48.8092 26.6533 47.4092 27.9867 45.6225 28.92C43.8625 29.8533 41.8892 30.32 39.7025 30.32ZM39.7025 24.4C41.0092 24.4 42.1158 23.92 43.0225 22.96C43.9558 22 44.4225 20.6267 44.4225 18.84C44.4225 17.0533 43.9692 15.68 43.0625 14.72C42.1825 13.76 41.0892 13.28 39.7825 13.28C38.4492 13.28 37.3425 13.76 36.4625 14.72C35.5825 15.6533 35.1425 17.0267 35.1425 18.84C35.1425 20.6267 35.5692 22 36.4225 22.96C37.3025 23.92 38.3958 24.4 39.7025 24.4ZM68.6113 7.44C71.2246 7.44 73.3046 8.29333 74.8513 10C76.4246 11.68 77.2113 14 77.2113 16.96V30H70.4113V17.88C70.4113 16.3867 70.0246 15.2267 69.2513 14.4C68.4779 13.5733 67.4379 13.16 66.1313 13.16C64.8246 13.16 63.7846 13.5733 63.0113 14.4C62.2379 15.2267 61.8513 16.3867 61.8513 17.88V30H55.0113V7.68H61.8513V10.64C62.5446 9.65333 63.4779 8.88 64.6513 8.32C65.8246 7.73333 67.1446 7.44 68.6113 7.44ZM103.004 18.48C103.004 19.12 102.964 19.7867 102.884 20.48H87.4044C87.511 21.8667 87.951 22.9333 88.7244 23.68C89.5244 24.4 90.4977 24.76 91.6444 24.76C93.351 24.76 94.5377 24.04 95.2044 22.6H102.484C102.111 24.0667 101.431 25.3867 100.444 26.56C99.4844 27.7333 98.271 28.6533 96.8044 29.32C95.3377 29.9867 93.6977 30.32 91.8844 30.32C89.6977 30.32 87.751 29.8533 86.0444 28.92C84.3377 27.9867 83.0044 26.6533 82.0444 24.92C81.0844 23.1867 80.6044 21.16 80.6044 18.84C80.6044 16.52 81.071 14.4933 82.0044 12.76C82.9644 11.0267 84.2977 9.69333 86.0044 8.76C87.711 7.82667 89.671 7.36 91.8844 7.36C94.0444 7.36 95.9644 7.81333 97.6444 8.72C99.3244 9.62667 100.631 10.92 101.564 12.6C102.524 14.28 103.004 16.24 103.004 18.48ZM96.0044 16.68C96.0044 15.5067 95.6044 14.5733 94.8044 13.88C94.0044 13.1867 93.0044 12.84 91.8044 12.84C90.6577 12.84 89.6844 13.1733 88.8844 13.84C88.111 14.5067 87.631 15.4533 87.4444 16.68H96.0044ZM139.409 1.92V30H132.569V18.44H121.929V30H115.089V1.92H121.929V12.92H132.569V1.92H139.409ZM166.387 7.68V30H159.547V26.96C158.854 27.9467 157.907 28.7467 156.707 29.36C155.534 29.9467 154.227 30.24 152.787 30.24C151.081 30.24 149.574 29.8667 148.267 29.12C146.961 28.3467 145.947 27.24 145.227 25.8C144.507 24.36 144.147 22.6667 144.147 20.72V7.68H150.947V19.8C150.947 21.2933 151.334 22.4533 152.107 23.28C152.881 24.1067 153.921 24.52 155.227 24.52C156.561 24.52 157.614 24.1067 158.387 23.28C159.161 22.4533 159.547 21.2933 159.547 19.8V7.68H166.387ZM178.14 10.84C178.78 9.8 179.7 8.96 180.9 8.32C182.1 7.68 183.474 7.36 185.02 7.36C186.86 7.36 188.527 7.82667 190.02 8.76C191.514 9.69333 192.687 11.0267 193.54 12.76C194.42 14.4933 194.86 16.5067 194.86 18.8C194.86 21.0933 194.42 23.12 193.54 24.88C192.687 26.6133 191.514 27.96 190.02 28.92C188.527 29.8533 186.86 30.32 185.02 30.32C183.447 30.32 182.074 30.0133 180.9 29.4C179.727 28.76 178.807 27.92 178.14 26.88V30H171.3V0.4H178.14V10.84ZM187.9 18.8C187.9 17.0933 187.42 15.76 186.46 14.8C185.527 13.8133 184.367 13.32 182.98 13.32C181.62 13.32 180.46 13.8133 179.5 14.8C178.567 15.7867 178.1 17.1333 178.1 18.84C178.1 20.5467 178.567 21.8933 179.5 22.88C180.46 23.8667 181.62 24.36 182.98 24.36C184.34 24.36 185.5 23.8667 186.46 22.88C187.42 21.8667 187.9 20.5067 187.9 18.8Z" fill="black"/>
</svg>
